<svg xmlns="http://www.w3.org/2000/svg" width="175" height="180" fill="none" xmlns:v="https://vecta.io/nano"><style><![CDATA[.B{fill:#2a6f64}.C{fill:#57bfae}.D{fill:#077f7f}.E{fill:#131313}.F{fill:#141313}.G{fill:#30d158}.H{fill:#0c4468}]]></style><path d="M42.825 94.32c-.031.608 1.83 1.067 2.411.731-.427-.9-1.595-.518-2.411-.731zm28.05 26.594c2.697 1.948 1.182-2.575.263-3.788-1.936-1.799-1.984 3.13-3.051 4.08-2.937-2.759-4.588-1.845-5.218 1.955-3.991-3.067-5.877-2.648-5.418 2.726 2.031 5.092.749-4.459 2.559-2.49 3.623 2.608 4.234 3.585 5.598-1.248 2.146 2.755 4.631 2.232 5.267-1.235zm-47.404-9.615c3.463.305-2.935 4.878 2.941 6.142.791 1.523 1.957 2.177 3.68 1.992 1.012-.108 1.085-.005.803 1.042-.969 1.526 1.66 5.627 2.364 2.962-.823-2.751 1.624-7.899-3.552-6.425-1.704.517 1.797-5.234-3.051-2.873-2.516-1.069 2.181-5.883-5.597-4.121-1.113.089.144 1.788-1.361 1.607-1.274-.069-.15 1.791-1.479.748-.653.119.094 1.357.741 1.272 1.771.101.926-2.585 4.511-2.346zm-7.278 14.926c8.112-5.361-6.626-.497-2.124 10.853 5.334 14.821 23.116 7.16 18.719-7.16-2.53-6.461-13.878-4.571-14.9 1.716-1.847 5.261 5.547 9.97 9.017 5.299 2.783-2.986-3.272-8.187-5.048-4.391-.301.99 2.111 3.268 2.155 1.454-.081-.663.407-1 .856-.599 2.493 4.375-7.043 4.458-5.348-.594 3.543-9.767 17.268-5.703 10.541 7.056-8.302 10.629-20.689-4.841-13.859-13.647l-.009.013zm-14.481.304c.05-1.16 1.68-1.753 1.678-3.2 1.131-.073.849-1.578 2.693-1.558-.106-1.323.928-1.504 1.773-1.777.98-.677-.211-1.126 1.6-.599-.25-2.605 3.235-2.459 4.513-4.534.658-1.392 2.422-1.251 3.32-2.357-.653-1.598.661-.495 1.028-2.057.394-.36.969-.444 1.498-.237.602-2.343 3.808-3.305 4.852-5.545.544-.207 1-.246 1.158-.928 1.69-.297-.203 1.151.931.941.612-.617.602-1.373.503-2.179.992-.424 1.565-1.294 2.379-2.183 2.087-1.233 4.932-2.852 5.922-5.053 2.619-.141 3.518-4.171 6.169-3.125-3.408 1.894-5.543 5.444-6.393 9.165-1.131 7.28 5.588 14.226 12.979 12.286 13.021-3.01 6.918-21.351-5.064-16.83-3.4 1.31-4.833 6.727-2.469 9.455 2.858 4.389 12.283.734 8.482-4.305-3.121-2.846-6.231 2.807-3.261 2.155 4.148-4.001 2.427 4.189-2.762 2.014-9.925-7.332 12.743-13.851 10.767.023-3.819 9.709-17.796 6.431-17.567-3.478-.071-.683-.069-1.671 1.103-1.907 1.309-1.103.584-1.462-.762-.221.477-2.973 2.455-5.008 4.548-7.001 1.378-2.9 4.409-1.04 7.022-.305-.277 1.083.505.883 1.107.883 6.971 2.099 12.368 7.751 18.464 11.727 10.048 9.88 17.992.256 12.668 9.666-.953 3.68.206 7.31 2.362 10.363.3 1.757 4.598 2.574 3.132 4.111-4.295 2.963-2.67 9.591-5.339 13.153-1.458-.502-2.364-.032-3.768.682-1.108-1.065-.635.551-1.752.512-3.402-1.028-6.5 1.817-10.23 1.78-.289-6.974-11.011-13.744-14.683-5.542-2.482 3.379.522 10.208-5.406 9.442-.272.051-.45.614-.671.942-1.882.497-3.159-.621-5.487 1.555-.959-1.441-4.968-4.755-5.009-1.152.395 2.836-1.5 2.966-3.575 1.85-4.289-1.101-.666 4.828-2.25 5.849-8.373-4.26-3.325 4.021-5.863 3.387-.102-1.063-1.415-.543-1.556-1.709-1.393-.911-3.857-.17-4.44-2.141-3.941-1.597-4.817-6.017-7.727-7.969-1.511-3.567-2.093-7.559-4.043-10.934-.133-1.825-1.545-3.91-.813-5.488 1.122-1.077-1.849-1.216-1.033-3.281.36-1.138-.631-2.115-.753-3.2.835-.363.417-.755.026-1.146z" class="D"/><path d="M110.974 151.705c-.682-.76-.938-.616-1.363.079.287.735.807.422 1.363-.079zm-61.977 3.927c.79-.58 2.062-2.121 2.163-3.003-.799.614-2.166 1.961-2.163 3.003zm-17.649 13.587c-.693-.812-2.698 1.796-2.491 2.729 1.241-.276 1.649-1.866 2.491-2.729zm85.64-21.913c-.846.029-3.386 2.817-2.947 4.092 1.29-1.028 2.327-2.531 2.947-4.092zm-32.55 19.911c-.631-.783-3.697 3.225-3.896 4.101 1.579-.98 2.573-2.796 3.896-4.101zm33.994-3.902c-1.223.266-3.459 2.923-3.879 4.452 1.748-.817 2.542-3.062 3.879-4.452zm-79.785 1.74c.76-.427 3.3-2.79 2.514-3.427-.783.252-3.694 2.526-2.514 3.427zm-8.5 2.14c-1.589.551-3.999 2.435-3.222 4.119 1.445-.945 2.111-2.802 3.222-4.119zm14.445-3.995c-1.493-.311-4.199 2.655-5.352 4.045 2.4.52 3.618-2.803 5.352-4.045zm50.333-16.568c1.663-1.575 3.377-3.664 4.376-5.698-1.399.713-2.303 2.266-3.48 3.321-.421.599-2.223 1.907-.896 2.377zm-53.471 22.959c1.294-.331 5.426-4.448 3.885-4.79-.986 1.509-4.584 2.949-3.885 4.79zm27.559 1.129c-1.853-.168-4.046 3.659-5.948 4.9.249 2.272 4.868-3.927 5.948-4.9zm15.55-1.182c-2.581 1.788-5.221 4.226-7.106 6.76 2.847-1.433 4.998-4.353 7.106-6.76zm-3.249-17.101c-.413-.353-.852-.129-1.2.113-8.937 8.296-4.392 7.168 1.2-.113zm37.16-9.527c-2.117 1.691-5.658 5.082-6.506 7.966 2.698-1.84 4.641-5.229 6.506-7.966zm-5.69 24.628c5.071-4.281 9.606-12.669.912-2.656-.613.864-1.517 1.462-.912 2.656zm-48.018-9.922c-2.321.292-4.103 4.13-6.122 5.699-.852 4.103 5.393-4.491 6.122-5.699zm13.963 12.391c2.296-1.953 4.926-4.309 6.579-6.788-1.281-.176-8.964 5.93-6.579 6.788zm-49.977-7.666c.894-.771 9.018-8.492 6.042-6.898-1.611 1.551-7.51 4.55-6.042 6.898zm38.307 5.002c-2.131-.215-3.717 2.678-5.49 3.757-7.213 7.809 3.948-.8 5.49-3.757zm50.174-26.221c-2.509.891-5.897 4.968-6.866 7.744 1.419 1.942 5.941-6.296 6.866-7.744zm-18.91 16.908c1.503-1.979 3.536-4.049 4.812-6.138-1.815.185-9.161 7.332-7.51 8.913 2.11 1.556 3.737-3.165 5.377-4.271-.112-1.054-2.016 1.214-2.679 1.496zm25.141 7.914c-13.629 10.046-8.595 13.759.057-.077l-.057.077zm-64.571-7.016c.637-1.926 4.209-3.176 4.078-4.812-1.408.826-9.477 6.98-6.398 7.429-.827 1.216-.646 2.391.78 1.186 2.227-2.631 5.442-4.86 7.137-7.737-2.287.286-3.391 3.204-5.596 3.934zm58.729-1.167c-10.389 7.916-6.585 11.043.059-.079l-.059.079zm-38.862.579c8.706-9.423.32-3.521-1.792.882 1.198-.46.987 1.468 2.061.415 3.182-2.814 3.96-4.886-.269-1.297zm23.086.005c-8.865 7.588-5.934 9.275.073-.081l-.073.081zM67.08 169.446c-1.942 1.598-4.676 3.617-5.591 5.92 1.91-.736 5.915-5.636 5.591-5.92zm-33.008-10.225c-5.706 3.248-3.851 6.651.063-.071l-.063.071zm42.946-15.472c1.968.024 15.609-3.997 14.637-2.236-1.539.963-3.584 5.403-.457 2.785 1.438-1.29 2.575-4.153 4.715-3.976-.132.863-4.958 4.834-1.39 3.467 5.657-8.729 27.864-11.819 32.569 1.554 1.692 2.186-1.884 3.402-2.919 5.092-.493.525-1.528 1.131-.799 1.878 1.738.87 2.974-2.408 4.265-3.291 1.844-.226-1.914 2.838-2.086 3.831-.479.905.78.951.863 1.571.087.651.511.578.957.588 1.133.056.452-2.167 1.805-1.647.3 1.316.952 2.767-1.038 2.901 3.25.589.912 3.882 2.405 5.916.291 4.066-.964 9.583-5.481 10.837-1.228 1.416-2.803.179-1.368-1.162 1.711-3.137-.709-.633-1.654.742-2.455 4.151-3.296 1.729-.28-1.057.678-1.172 3.754-4.067 1.273-2.56-2.758 1.58-4.653 7.071-7.402 7.02-5.193-.07-18.153 4.722-10.423-3.411-1.72.143-3.367 3.552-5.024 4.822-4.11.301 2.998-4.042 2.104-5.632-1.51.982-3.852 4.214-2.543.711-1.511.672-3.878 3.626-5.1 5.222-3.554.395-6.921-.81-10.392.193-.629.273-1.609.649-2.128-.439-2.313.837-4.941.468-7.426.69-.69.054-1.196.312-1.761-.397-.679-.851-1.697-.392-2.55-.224-2.841.156-6.059-.358-9.095-.446-2.488-.183-5.323.201-7.539-.751-8.897 2.253 1.544-4.748-.222-5.717-1.897 1.236-6.596 7.049-4.173 2.214-1.338.598-2.229 2.103-3.387 3.043-3.167.499 6.03-7.221 3.383-6.832-7.868 9.643-6.112 5.704-17.171 4.995-7.633-1.662-12.921-7.458-5.984-13.735 4.198-2.813 7.318-6.512 12.549-7.596 1.706-.302 3.451-1.466 5.096-1.427.181 1.542-3.687 4.62.092 3.769 2.572-4.61 10.021-9.668 2.543-1.304-.997 1.798 2.045.18 2.18-.402.703-1.946 1.844-3.369 3.655-4.306.897-.791 2.609.417 3.619-.939.838.123 1.565.705 2.437.181 2.047-1.463 4.416-1.382 6.665-2.241 4.219-.815 8.515-.927 11.981-2.294z" class="G"/><path d="M167.062 119.023c-.445-.31-.836-1.379-1.411-1.034-.205.781.894 1.856 1.411 1.034zm-8.534-3.489c-.142-1.708-2.383-1.447-2.347.287-.047 1.69 2.47 1.152 2.347-.287zm-14.198-15.475c-.685-.99-1.221-2.431-2.551-1.776-1.537 1.541 1.34 4.232 2.551 1.776zm-11.816 3.076c.115-1.772-2.842-2.563-2.949-.59.105 1.764 2.863 3.049 2.949.59zm14.532 28.608c-1.369-.018-1.994.454-1.985 1.498.382 3.941 6.351-1.018 1.985-1.498zm-24.647-3.801c-2.86-.128-2.351 2.836-.072 2.978 1.946.012 2.524-3.133.072-2.978zm33.398-29.374c-.731-3.145-3.531-2.109-3.878.594.514 2.703 3.985 2.449 3.878-.594zm9.458 13.837c7.12 16.476-4.927.297-16.065 25.559-3.205 2.166-8.771-1.435-11.643-3.597-.898-.638-.357-.902.439-1.236 5.856-2.431 11.064-6.764 14.035-12.227 16.043-29.62-37.619-17.52-18.064 11.651.947 1.262-2.176 1.006-2.898 1.515a22.32 22.32 0 0 1-14.993-1.904c-4.927-.657 9.182-7.55 10.485-17.018 3.177-9.391-7.75-14.585-15.16-10.303-.386-.569-.059-.669.443-.868 5.557-1.963 1.106-3.415-2.24-2.704 2.996-1.771 6.101 1.74 8.779-.746 3.361-3.337 8.826-3.541 11.608-7.087.034-.157-.424-.393-.604-.632-.567-.755-.949.271-1.445.132-4.885-.636 1.796-4.286-3.049-3.625 1.916-.542 3.447.663 5.283.348.417-1.201 3.241-.14 1.132.419-.144.129-.06.903-.118.986-1.119.934-1.441-1.347-1.941-.322-1.533 1.691 2.426 2.601 3.37 2.211.411.279.501.753 1.149.351 4.783-2.397 1.574-.535 3.073.103-.284-1.365.929-1.055 1.445-1.075 3.945.033 7.547-2.042 11.513-1.214 1.997-.094 2.584.674 3.821 2.282 1.154-.321 1.354.713 1.716 1.32 3.52 5.864 6.585 11.795 9.929 17.682zM39.845 38.556c-1.458-.001.686-2.329-.861-2.08-3.474.572-2.338 5.111-2.892 7.692-1.216 16.399 6.883 11.285 18.598 11.648 5.198.776 24.476-2.096 26.367 1.521 4.965 3.446 7.183 9.117 7.2-.847-.917-5.335 2.169-17.401-2.144-20.5-9.041-.7-18.189.13-27.265-.245l-17.943.351c-2.108.342.902 1.735-1.059 2.46zm3.334 52.965c-16.062 6.267-25.898-6.776-5.282-8.677-3.763-3.962-8.175-7.521-9.384-13.106.612-7.414 11.63-1.463 15.15.973 5.251 3.478 8.834 8.839 12.343 13.956.459.643 1.547 3.686 1.922 2.08l-.069-27.145c-.06-1.728-.252-1.928-1.91-1.901-17.971.786-24.273 2.368-21.093-18.889 1.834-7.05 12.104-3.266 17.558-4.411 4.762.112 5.641.113 4.973-4.953-.644-9.192 8.844-15.546 17.361-14.427l25.816-.209c1.517.367 5.131-.93 5.028 1.286.089.748-.406.726-.934.722-10.294-.118-20.588.032-30.882.081-10.692-.475-15.66 7.72-14.257 17.37 5.327.157 10.655.224 15.977-.036 4.713.697 13.827-2.402 14.251 4.605.852 6.684.541 13.412.23 20.121.339 9.193-1.998 6.7-7.338 2.083-3.127-4.153-7.608-3.913-12.293-3.379-.489.975-.827.533-1.227-.061-2.652.61-9.057-1.645-9.616 1.439.422 10.55-.08 21.511.298 32.196.049.473.062.957.097 1.432-.012.728-.041 1.774-.083 2.627-.255 2.058 1.283 5.664-1.854 2.814-.108-2.222.616-5.079-.112-7.113-2.594-3.42-4.293-7.333-7.028-10.692-4.728-10.099-32.464-20.809-14.256-1.868 4.087 3.317 9.421 11.046 14.148 12.163.169 1.442.695.123 1.155.505.441 3.396-.455 4.814-3.508 2.049-6.058-6.524-11.76-13.45-20.064-5.146-.478 3.063 5.926 3.641 8.385 3.205 1.629.238 6.77-1.871 6.499.309z" class="E"/><mask id="A" mask-type="alpha" maskUnits="userSpaceOnUse" x="92" y="103" width="82" height="60"><path d="M92.668 103.345h80.367v59.304H92.668v-59.304z" fill="#fff"/></mask><g mask="url(#A)" class="E"><path d="M150.628 160.329c2.512-.737-1.617-4.047-1.914-5.809-1.509-6.21-9.95 3.638-11.87 6.029-.752 1.569 3.398.364 4.25.899.372-1.114 1.204-.353 1.815-.441 2.738.111 4.706-1.175 7.719-.678zm16.441-38.453c-7.981 1.821-13.539 8.592-16.44 15.914-.37.891-.262 1.05.67.982 6.98-.608 13.877-3.43 18.751-8.538 1.804-1.849-1.214-4.209-.867-6.489-.005-1.357-.679-1.731-2.114-1.869zm-60.941-4.452c-.378 4.97 3.161 11.261 7.496 12.813 10.572-4.931 20.385-28.636 1.037-25.638-5.566 1.496-8.928 7.255-8.533 12.825zm38.52-12.56c-13.176.749-17.522 17.954-9.522 27.144 10.994 1.162 31.125-27.367 9.522-27.144zm19.935 50.863l.115.129c9.172-4.713-11.192-6.683-14.501-4.799-2.192 1.878 1.559 5.932 2.95 7.713 1.993 1.631 4.89-.592 7.24-.574 1.925-.1 2.961-1.149 4.196-2.469zm3.513-35.913c-5.654-10.652-.361-5.697 1.211 1.413.633 3.718 2.124 7.017 2.492 10.831-.087 3.523 1.841 7.278 1.041 10.574-.47 1.205-1.779 6.588-1.763 3.293 1.227-.659 1.101-19.348-1.6-12.691-16.858 11.435-21.013.85-20.67 15.524.213 2.55 3.928-.151 5.534.355a42.54 42.54 0 0 1 6.773.701c2.992-.117 7.613 4.589 8.848.125.067-.663.352-1.132.877-1.54-.15 4.587-3.873 6.798-7.16 9.154-5.829 3.195-13.073 2.47-19.47 4.35-2.837.363-5.821-.121-8.69-.176-1.486.201-4.009 1.632-5.03.474 3.429.374 4.755-2.123 6.628-4.493.856-.659 1.196-2.116 2.7-1.838 1.283-2.485 4.202-3.331 6.475-4.703.718-.371 1.143-.704 1.078-1.616-.639-10.779 4.774-7.85-6.706-11.474-9.925-8.049-12.937 2.854-27.051-5.691-12.087 2.856-19.51 4.054-20.666-11.42-.402-2.179-.793-3.586 2.075-3.104-2.341 4.325-.323 12.196 4.203 14.542 2.451 1.418 16.423.727 10.463-3.361-6.503-5.866-6.817-19.892 1.814-23.653 1.71-2.283 8.026-2.799 11.023-.809 10.305 6.405.433 20.222-6.597 25.368-4.407 2.104 4.92 3.759 6.433 4.614 2.664-.32 11.033.636 11.536-1.978-16.868-23.908 21.137-39.96 21.195-19.558-1.931 9.077-8.609 16.623-17.171 20.133-.795.31-1.334.621-.438 1.234 18.588 13.073 7.327-7.645 30.73-14.433l-.117-.147z"/></g><path d="M102.291 71.529c-21.128-1.142-12.473 3.516-13.702 21.404.352 1.892 4.111-3.064 5.306-3.535.922-.773 1.729-1.951 3.212-1.065l17.197-.873c3.685-1.063 19.152 1.495 19.213-2.469-.54-5.74 1.637-16.191-7.386-14.069-8.374.615-15.303.439-23.839.606zm22.301 25.372c-3.799 2.893.377-7.981-2.547-7.776-7.92.39-15.853.724-23.783.493-4.004.449-6.052 4.632-9.476 6.305-4.193.923-1.648-8.91-2.504-11.537.386-5.055-2.384-13.706 5.123-14.549 9.848.287 19.688-.394 29.531-.577 3.479.197-1.409-26.102 1.816-26.71.698.038.959.376.955 1.133l.171 23.96c.072 3.157 4.677.686 6.634 1.573 6.572.425 3.26 11.28 5.584 11.779 3.845-3.515 16.49-7.278 14.897 1.659-1.231 3.766-3.05 8.766-7.583 8.829 9.85-10.857 6.543-17.004-6.968-9.265-2.482 1.329-.305 6.439-3.997 6.519-8.766 1.692-7.807-2.412-7.853 8.164z" class="F"/><path d="M164.273 144.335c-.767-1.473-2.171-1.835-2.026-.036.461 1.354 1.065 1.025 2.026.036zm-10.387-1.07c-1.781-.357.971 2.124 2.108 1.67 2.402-1.893-.016-2.809-2.108-1.67zm16.922 5.177c-2.835 6.563-4.257 1.971-9.72 1.42-2.226-.415-4.507-.65-6.77-.704-1.607-.494-5.321 2.189-5.532-.354-.357-14.708 3.847-4.121 20.66-15.575 3.366-6.918 2.13 14.071 1.362 15.213zm-48.95-114.009c-5.787-.772-4.479 2.408-.235 3.275 4.131-.547 5.756-4.177.235-3.275zm-8.936-18.972c-.771.648-3.123 4.869-.257 2.906.569.233 1.347 2.184.281 2.258-.609-.119-.769-1.382-1.479-.746-.508.491-1.346.998-.757 2.069.434 1.328-.698 2.624-.355 4.047-.815 1.64.973 1.357 1.609 2.548 1.043 1.31.852-1.311 1.578.687-.74 1.107.635 1.258-.892 1.585-.319-.498-1.453.015-1.333-1.076-.117-.33-.941-.467-1.051.066-.01 1.272-.456 2.746 1.345 2.469a375.39 375.39 0 0 1 20.633.137c2.616-.117.561-10.083.621-12.091.185-8.557-12.426-12.488-18.185-6.756l.019-.014c-.769.391-1.401 1.155-1.777 1.913zm-4.662 13.736c-.728-7.861 1.103-16.895 9.712-19.313 1.631-.768-1.039-3.892 2.401-5.439 7.525-1.916 4.278 5.146 6.363 5.685 9.172 2.989 8.366 13.19 8.391 21.021.518 4.379-4.18 3.075-7.023 3.254-2.092 1.477-1.164 4.685-5.923 5.146-5.687.587-4.732-5.077-7.506-5.091-5.571-.155-6.222.692-6.415-5.261zm3.188 76.054c-2.646-1.031-.344.384-2.839 1.924-2.823 1.799-6.899 5.06-9.821 7.508-.349 2.646-2.855-3.175-9.509-1.605-4.584 1.457-3.222 9.59 1.191 10.724-7.145 11.368-14.513-13.092-2.234-14.274 9.318-1.154 16.548-9.895 25.927-8.035 2.144 1.896-4.035 1.687-2.715 3.758zM49.383 9.399c-4.113-.006-3.548 5.551.164 5.443 3.223-.14 3.468-5.457-.164-5.443zm-4.673 2.747c-.057-6.169 9.701-6.267 9.446.283-.234 5.906-9.796 5.521-9.446-.283z" class="E"/><path d="M86.331 110.083c-7.285 2.868-5.898 14.534.794 17.315-1.652 4.948-10.763-9.098-4.69-15.668-.02-1.328-2.26-.695-1.811-2.003-2.108-2.542-1.144.713-2.312-.321-.116-.772-.32-1.342.602-1.481-.646-.369-1.993.512-1.103-.789.174-1.345.575.116 1.221-.225.732-.097 1.457-.485.703.41-.523.228-.599.448.012.656.902-.832 1.759.917 2.396 2.072.286-.704.677-1.227-.332-1.536.805.197 2.016-.187 1.393.849-1.048 1.433 2.855.024 3.127.721z" class="C"/><path d="M142.797 50.225c-.269 1.182-1.987 2.481-.835 3.388 1.296.38 4.397 3.703 1.4 3.356-4.586-3.616-1.865-1.114-5.173.511-1.703-1.424 2.226-3.688-.151-4.911-.451-.392-1.34-.956-1.036-1.629.692-.692 1.46.01 2.076.438 1.68 1.988 2.135-4.24 3.719-1.152zm5.589 39.956c-.052-.099-.13-.115-.167-.005.03.111.108.1.167.005zm-1.838.73c.312-1.006 2.928-2.009 3.2-.802 0 .056.394.187.414.157.692-1.047.722-.064.993.293 1.974.696 3.354 2.049 4.757 3.633.707 1.82 1.434 3.503 3.114 4.683 1.504 4.734 4.778 8.671 6.148 13.593-3.354-5.888-6.427-11.82-9.957-17.685-.313-.963-.865-1.351-1.929-1.491-1.45-2.904-4.155-1.869-6.74-2.383z" class="E"/><path d="M69.261 96.358c-1.297-2.885-2.753 1.744-3.276.041-.19-1.084-.627.191-.408.58-1.348-.483-.758-1.919.427-1.903 2.33.507 1.315-.239 2.712-1.097.43-.252 1.068.29 1.36-.139-.117-1.172 1.961-.817 1.532-2.188 2.006-2.242.316 2.546 3.357-.116.827.337-.629.814.506 1.543.847.994-.516 1.039-.918.641-.861-.155-.439 1-.934.981-1.424-.912-1.804-.264-2.486.999-.133.909.732 1.949-.546 2.43-.432-.22.398-.935-.435-1.041-.388-.05-.022-1.151-.89-.731zm73.874-79.892l3.46.009c4.591 2.817-4.487 2.036-6.036 1.992-1.622.58-5.258-.815-2.03-1.806 1.456.088 3.383-.478 4.606-.194z" class="D"/><path d="M141.375 2.729c-1.976 2.408-3.599 6.404-6.396 7.448-.828-2.845 3.312-5.351 4.463-7.899.661-1.004 1.462-.415 1.933.451z" class="E"/><path d="M146.844 9.657c-1.678 2.278-15.858 6.275-7.033 1.611 1.94-.26 5.978-4.038 7.033-1.611z" class="F"/><path d="M59.527 29.175c-.832-2.608 1.212-3.695 2.75-5.245.501-1.539.883.27 1.244 1.258 2.998 1.647-4.837 7.511-2.889 4.29 2.038-.438 3.041-5.196.786-2.075-1.095-.107-1.133 2.048-1.89 1.772z" class="B"/><path d="M59.778 99.42c.414-.092 1.181.377 1.207-.395.05-1.275-1.554-.63-1.052-2.225.98 1.198 3.148-.106 1.998 2.019-.029.126.153.412.275.435.94-.377 1.304.89 1.21 1.354-.475.621.019.85.268 1.162 1.613 2.157 1.542.194 3.248 1.997.938 3.571-5.9-3.363-7.155-4.348z" class="C"/><path d="M72.047 23.663c-.89 1.188-1.251-2.267-1.872-.354-.464 1.139-1.971 1.323-1.716 2.685-2.975-.246-2.157-7.065.611-4.327.816.799 1.177-1.429 1.913-.696-.191 1.23.899.558 1.064 2.692zM47.873 175.561c-.161-.146-.252-.104-.367.06.193.118.317.228.367-.06zm-1.99.213c.81-.477 3.211-3.898 3.358-2.522-2.832 4.172 2.717-1.556 4.25-2.689 1.474-.06-1.857 2.714-2.229 3.599-.976 2.782-2.925 2.001-5.379 1.612zm41.208-69.164c-.424.771-.776.77-.229 1.228.494-.422.62-.483.229-1.228zm9.199-.188c-1.348 1.708-4.153 1.814-6.094 2.799-2.133.777-1.449-.08-2.183-1.649-.729-.239-1.628.517-2.378.599-.865.115-1.599-.981-.377-1.155.506-.282 2.731-.101 2.3-.756-1.612 1.317 1.694 1.006 2.038 2.031.89.614 1.16-1.521 1.858-.152.489-.208.584-.674.78-1.119.724-1.016 1.18 1.544 4.055-.598z" class="E"/><path d="M86.386 34.393c-8.974-.292-17.932.249-26.903-.087 1.305-.839 2.35.25 3.827-.149.498-.484.057-3.551.926-1.614-.7 3.651 18.684-.007 22.15 1.851zM27.997 158.937c-1.546 2.359-3.739-.6-3.867 1.693-.236 7.252-4.913-7.063 3.867-1.693zM66.9 26.223c-.214.107-.183.216-.075.39.211-.105.183-.211.075-.39zm-.54-4.122c.546 1.41.073 3.76 2.14 3.988-.414 4.586-6.821-5.158-2.14-3.988zM43.962 175.012c1.343-.905 5.063-7.123 5.913-5.517-1.087.689-5.417 8.639-5.913 5.517zm23.414-92.504c.504-.754.389-1.455-.65-1.244.442-.361 1.391-.476 1.508.283.517 1.975 3.032-.95 2.148 1.088-2.306 1.243 2.485 2.305-2.289 2.296-.912.473-1.123.012-1.206-.766 1.273.697 1.223-.951.488-1.657z" class="D"/><path d="M124.08 168.492l-5.306 6.728c-3.318.849 3.442-6.094 5.306-6.728zM67.326 82.475c2.021 2.228-1.837 2.141-2.189.827l-1.268.337c-.867.682 1.308 1.76-.76 2.813-.394-.809.842-1.135.189-1.88-.38-.687.58-1.378-.019-2.109.557-1.035 1.741-.046 2.145.741.837 1.209.737-1.457 1.901-.729zm31.826 91.885c7.805-7.293-3.586 7.89-2.319 2.347.029-.02.245-.249.281-.282 1.106-.263 1.658-1.087 2.048-2.076l-.01.011zM68.648 94.057c-.178.057-.501.092-.514.175-.449 2.29-3.785.467-3.719-.881.463-.547.033-.529-.35-.54.615-1.569 2.239-2.917 1.467-.291-.628 3.33 2.155-.777 3.116 1.538zm52.18 80.496c.452-1.656 4.783-6.542 2.763-2.701-.274.5-1.066.903-.337 1.588.771.724 1.175-.166 1.713-.428-.575 1.085-2.998.551-4.139 1.541z" class="E"/><path d="M17.071 111.434c.165.475.576 1.176-.062 1.461-3.087.544-3.836 4.147-6.898 4.452 2.345-1.931 4.336-4.367 6.96-5.913z" class="B"/><g class="E"><path d="M64.462 69.896l.479.169c-.193 1.574 1.382 3.684-1.161 3.675 1.269-.459.958-1.705-.239-1.744.724-1.048-.184-1.813-.495-2.645-.682-.856.992-1.55 1.015-.68.338.697-.411 1.567.401 1.225zm10.5 24.212c2.095-.265-.957-1.386.381-2.211-.391-.513-.566-.245-.88.125-.153-1.146-1.82-1.127-.701-2.613.665.416 1.073 1.55 1.728 1.756 1.071.243.781.972.827 1.61-.188.815-.079.68.462 1.259-.608-.028-1.191.529-1.815.075zm25.171 83.334c1.655-1.267 3.31-4.667 5.026-4.811-1.431 1.54-2.842 5.437-5.026 4.811zm-5.469.172c2.159-3.674 8.262-8.121 2.405-1.213l-.298.291c-.235.72-1.233 1.476-2.107.922zM64.646 95.435c-.006 1.174.885 1.814 1.636 2.762-.584.169-1.284 1.399-1.702.485-2.613-2.875-.214-1.507-.939-3.367-.684-1.033 1.433-1.735 1.031.15l-.026-.031zm6.071 5.319c.131-.917 1.7-1.971 1.535-.532.703.093.758-.991.111-1.015 2.943-.353.847 1.599 1.316 3.062-1.169-.018-1.092-1.922-2.962-1.515zm-60.606 52.069c1.653.065 2.947 5.09 5.997 5.691.762 2.329-5.596-3.84-5.997-5.691zm54.058-63.709c-.341-.378-.471-.281-.852-.163.194.543.35.391.852.163zm-.071 1.181c-3.782-.741 2.594-5.886 1.258-.594l-1.258.594z"/><path d="M63.524 71.966c.704.182 1.481.312.966 1.372-.725-.819-2.134.111-.717.414l-.059.003c-.096.823-1.774 1.469-2.161 1.02 1.371-.225-.775-1.2.348-1.598.606-.215 1.086-.796 1.623-1.212z"/></g><path d="M76.743 103.169c.002 1.399.129 1.905-1.48 1.589-.741.732-.6.065-.372-.582.993-.814-.697-1.521.122-2.012 1.634-.267 1.308.799 1.765.982l-.034.023zm.33 7.161c-2.108.354-4.239-.706-5.765-2.007.404-1.393.778.161 1.169.012.055 1.456 1.711-.14 2.231.618-.149.256-.609.59.058.68 1.55-.018 1.942-1.364 2.308.697z" class="D"/><path d="M76.629 102.651c-1.24-.66-.193-.695.135-1.67-1.344-1.527-.398-1.366 1.171-.902.707 1.463-1.009.536-.541 2.194 1.021 1.531-.332.315-.666.883.071-.12-.085-.348-.099-.505zm-52.032 1.983c-1.189 2.251-3.772 3.058-4.906 5.469-1.968-.345 3.633-4.469 4.906-5.469zm53.511-40.288c-.805.802-1.255 2.462-2.66 2.285-.042-1.112 2.162-5.021 2.66-2.285z" class="E"/><path d="M59.63 57.927c1.836.035 9.42-1.434 9 .773-1.253-.475-1.526-1.201-3.208-.882-3.031.168-5.279-.876-3.173 3.062-2.001-.638-.395-3.271-2.619-2.953zm4.421 32.369c1.723.664 1.014.887.068 2.533-.631.659.288.335.356.551.172.739.304 1.182-.616 1.203-.189-.323-.309-.848-.578-.938-1.212-.409-.043-.242.042-.403.253-.658-.3-1.353-.567-1.939.585-.219 1.307-.204 1.295-1.007zM1.706 128.285c1.632 1.416-.34 3.958 1.666 4.898.641.309.722.478.13.971-.784 2.754-1.99-4.235-1.796-5.869zm15.205 31.486c1.155.349 2.647.25 3.632.887.18.708.671.98 1.363 1.078.444 1.856-4.032-1.566-4.995-1.965zm55.59-51.441c-1.611-1.413-.442.76-2.036-.62-1.891-1.34.082-.592 1.289-.752 1.6-2.053 2.315.121.746 1.372zM59.512 29.169c.811.21.373-.693.8-.886.414-.187.375-.955 1.105-.881.264-.173.626-1.041 1.063-1.26 1.392 1.344-3.411 5.614-2.969 3.027z" class="D"/><path d="M4.346 139.667c1.49 2.117 1.911 4.815 2.661 7.244-1.562-2.19-1.66-4.82-2.661-7.244z" class="E"/><g class="D"><path d="M61.996 62.982c.457-3.418 1.746-.197 1.774 1.438-.792.106-1.308-1.135-1.774-1.438zm7.139 33.472c.841-.429.487.697.863.748.808.109.003.84.422 1.065.062 1.212-1.537.777-2.216 1.194 2.204-.768-.657-1.524.931-3.007zm-36.999-3.33c3.251-.344 9.964-.371 3.498 2.05 4.702-2.892-1.114-1.406-3.498-2.05zm30.451-61.808c.177-.495.524-1.001.495-1.484.122-1.146 1.932-1.086 2.436-.324.22 1.017-1.038.418-1.199 1.339-.392.486-1.177.31-1.732.469z"/><path d="M72.039 23.629c-.157-2.111-1.241-1.457-1.059-2.687-.224-.212-1.348-.388-.602-.853 1.606-.679.517 1.081 1.801 1.239-.575.736.719 1.583-.14 2.302zm8.879 71.614c-.083-.898 2.721-2.558 2.325-.711-.004.089.01.835-.594.461-.943-.538-.863 1.041-1.731.25zm-46.417 1.113c-.979 1.607-2.801 3-4.435 3.548 1.355-1.351 2.78-2.589 4.435-3.548zm28.093-65.097c1.709.165 1.539-1.09 2.802-1.126-.948.187-.696 1.197-1.126 1.737-1.401.617-4.255 1.261-1.676-.611z"/></g><path d="M78.847 105.225c.266-.475.175-2.142.753-1.897.77 1.322.993 4.252-.753 1.897z" class="E"/><g class="D"><path d="M80.921 95.174c.903.999 1.844 1.626 3.248 2.218-1.237 1.407-3.358-.868-3.248-2.218zm-9.623-71.545c1.601.462-.467 1.768-.777 2.516-2.348.767.151-1.738.777-2.516zm28.096 81.66c-.54.722-3.849 1.737-2.208.627.406-.35.202-1.357.844-1.43.886.339-.177 1.251 1.364.803zM73.331 90.045c.587.716-4.573 2.969-3.081 1.235 1.621.558 1.377-1.616 3.081-1.235zM8.156 119.12c.366 1.479-2.457.674-2.091 2.607-2.655 1.036.78-2.235 2.091-2.607zm89.473-15.964c-.801-.703 1.733-3.957 1.613-2.384-.67.819-1.456 1.195-1.613 2.384zm-25.582-35.01c-.702 1.162-.945 1.094-1.774.138.78-.524 1.182-1.322 1.774-.138zm-10.051-44.34c-.998 2.526-3.332 2.342-.74-.768.001.485-.356 1.305.74.768z"/><path d="M103.533 103.304c-2.193.831-1.819 1.762-3.252.158 1.174.015 2.119.539 3.252-.158zM73.821 16.907c1.705-.268 5.81.184 1.933.957-.349-1.089-1.3-.644-1.933-.957zm-70.365 106.5c.115 1.874-3.323 3.358-1.256 1.012.481-.208.842-.666 1.256-1.012zm83.669-25.87c-.548.499-1.122.988-1.33.102.389-1.066.682-1.136 1.33-.102zm-59.813 4.88c.395.653-.569 3.117-.899 1.87.716-1.262-1.698.096.899-1.87zm43.472-1.75c.78-.083 1.12.027.497.709-.34.288.863.658-.066.821-1.177.42-1.168-1.107-.432-1.53zm7.245-.629c-1.766.203-2.425-1.975-.641-.839.265.221.95.194.641.839z"/></g><path d="M84.137 97.391c-.985-.271-.748-.893-.438-1.626.459.426 1.864 1.57.438 1.626z" class="E"/><path d="M70.421 103.153c-.608.767-1.144 1.44-1.478.217.023-.816 1.074-.467 1.478-.217zM7.007 147.502c.992.792.946 2.043 1.33 3.104l-1.33-3.104zm2.808-29.86c-.307.546-.258 1.173-.33 1.774-2.025-.169-.483-.867.33-1.774zm99.483-16.318l-3.104.945c.862-.964 1.921-1.186 3.104-.945zm-29.416 9.446c-.609 1.149-1.747.037-2.661-.075l2.661.075zm-4.744-23.431c.47.581.398.891-.177 1.33-.839-.582-.666-.763.177-1.33zm9.597 5.47c.123.741.817 1.537.246 2.217-.524-.362-.724-1.969-.246-2.217zm-21.559 3.835c.04.444-.592.59-.892.895-.436-.826.218-2.302.892-.895zm16.558-14.333c-.492.132-1.161.573-1.478.046.685-.974.856-1.462 1.478-.046zm-10.2-62.712c-.614 1.191-.971.394-1.774.029.693-.616 1.03-.908 1.774-.029zm2.944 11.273c-1.41-1.335.193-2.607.255-.524.131.224.012.474-.255.524z" class="D"/><path d="M3.209 135.528c.703.761.56 1.878.841 2.809-.778-.806-.994-1.759-.841-2.809z" class="E"/><path d="M59.778 95.429c.018-.337 1.065-.319 1.421-.551.328.955-.843.798-1.421.551zm19.412 10.388c.392.26.955.354.988.893-.871.371-1.525-.009-.988-.893zM68.785 98.13c1.184.745-.235 1.274-1.021.924-.057-.672.553-.747 1.021-.924zm4.915 4.116c-.935-2.414 2.258-.767.739-.653-.712-.313-.148.853-.739.653zm32.198.171c-.418.711-.976.979-1.774.49l1.774-.49z" class="D"/><path d="M69.387 25.853l-.025.503c-.014 2.509-1.949-.67.025-.503z" class="E"/><path d="M69.157 59.993c-1.68-.048.334-1.322.821-.73l-.821.73zm-.072 46.563l-1.177-.746c.738-.278 1.243-.201 1.177.746zM8.633 150.754c.567.357 1.378.538 1.14 1.478l-1.14-1.478zm19.808-49.224c-.082.577-.475.762-1.035.737l1.035-.737zm-10.2 9.017c-.151.646-.446 1.112-1.183 1.024l1.183-1.024zm53.824-5.913c-.135-.66.561-1.807.574-1.116-.35.38-.341.405-.574 1.116zM1.709 126.511c.359.404.741.808-.024 1.183l.024-1.183zm33.827-31.189c-.008.601-.185 1.051-.887 1.034l.887-1.034zm50.702 14.781c.07-.439 1.279-.258 1.774-.443l-1.774.443z" class="D"/><path d="M29.623 100.347l-.887 1.035.887-1.035z" class="E"/><path d="M4.19 122.52c.061.54-.216.753-.731.739l.731-.739zm63.718-16.851l-1.035-.38c.346.127.905-.414 1.035.38zm11.235.061l-.215.235c-1.181-.14-.034-1.099.215-.235zM60.222 30.429l.887.027c-.322.614-.614.502-.887-.027zM25.78 103.747c-.2.352-.285.84-.887.721l.887-.721z" class="D"/><path d="M68.795 91.967c-.09.074-.187.065-.296.04.097-.026.195-.039.296-.04z" class="E"/><path d="M104.523 177.118l-.054-.052-.005.148.059-.096z" class="D"/><path d="M100.724 104.93c-.024.521-.257.235-.591.035l.591-.035z" class="E"/><path d="M70.424 58.514c.264.2.121.284-.064.444-.15-.18-.092-.299.064-.444zm-48.34 103.918l.591.295-.591-.295zM87.125 34.715l-.296-.148.296.148zm-17.714-8.13c-.272-.111-.21-.126.099-.148.053.063.017.117-.099.148zm53.733 68.145a.23.23 0 0 1-.036.296c-.025-.12-.12-.237.036-.296zM18.537 110.251c-.021.096-.07.145-.148.148l.148-.148z" class="D"/><path d="M59.541 59.251l-.054-.096c.096-.158.229.126.054.096z" class="E"/><path d="M74.708 93.843l.296.296-.296-.296z" class="D"/><path d="M65.498 96.652c-.178-.066-.098-.233.046-.094l-.046.094zm57.587 0c.073.125.187.216.027.296-.079-.086-.088-.185-.027-.296zm-55.226 2.223l.05.086c-.052.181-.273-.139-.05-.086zm-8.002-6.066c-.102-.047-.093-.087-.014-.148.105.051.103.083.014.148z" class="E"/><path d="M4.282 139.396l.029.099c-.076-.032-.116-.037-.029-.099z" class="B"/><g class="E"><path d="M68.203 99.376c-.058.025-.108.067-.147-.013.047 0 .158.058.147.013zm-8.393-8.078c-.033-.124.011-.079.096-.05l-.096.05zm58.948 83.994l.296-.296-.296.296zm-.295-.06l.295-.028-.295.028zM65.272 89.738l.099.083c-.035-.024-.065-.095-.099-.083zm32.939 87.771l.443-.148-.443.148zm36.321-26.972c-.597-.036-1.438-.245-1.485.884.528 3.993 6.451-.721 1.485-.884zm3.158-7.976c-.205-2.24-3.161-1.541-3.084.718.079 1.804 3.354 1.099 3.084-.718zm-46.155-9.353c-2.187-.407-4.602 3.03-2.091 3.464.257-.678.552-.335.988-.162 2.046.727 3.168-2.81 1.103-3.302zm35.705 20.276c.708-.381 2.385-.861 1.217-1.738-.554-.153-1.807 1.922-1.217 1.738zm-40.966-24.763c1.454-1.532 2.818-3.866 4.639-5.366 1.329.16.769-.575.57-1.146 3.759-3.997-.537 14.21 13.092 12.026 2.632-.307 5.127-.934 7.535-2.032 5.003 1.384 9.706 4.547 15.353 3.589 2.882.302 6.416-2.475 8.879-.6 2.969 2.833 7.086 4.322 11.062 4.772.622.101.878.295.729.929-2.186 15.475 1.5 5.575-8.358 14.993-1.899.006-2.916 2.139-3.967 3.414-1.623 3.597-6.985 4.188-5.953-.666-.073-1.713-.049-1.714-1.803-2.326 2.686.257.863-5.005-.072-1.982.06.891-1.537 1.094-1.651.138-.083-.621-1.341-.666-.863-1.572.647-1.465 2.311-2.463 2.684-3.993-1.87.232-2.823 4.45-4.861 3.453-.729-.748.306-1.354.798-1.88.805-1.472 4.038-2.655 3.238-4.444-.928-3.073-2.643-5.266-5.369-6.951-6.038-4.03-16.804-3.673-21.953.627-2.427-.723-3.098 1.384-5.543 4.119-3.53 1.322 1.201-2.535 1.39-3.468-2.137-.185-3.279 2.695-4.713 3.976-3.736 2.79-.255-2.311.776-3.379-2.291-.092-4.572 1.001-6.859 1.33-1.727.079-5.605 1.943-3.253-.645-.769-.796.181-1.265.325-1.883.892-3.32.79-7.767 3.942-9.818.505-.361.628-.725.207-1.215zm-70.095-2.584c-6.826 8.787 5.555 24.22 13.855 13.616 6.724-12.74-7.003-16.778-10.54-7.04-1.69 5.042 7.837 4.956 5.348.592-.449-.399-.937-.063-.857.598-.324 2.158-3.511-1.617-1.51-2.435 5.916-2.031 6.759 7.874.509 7.238-10.928-1.818-3-16.396 5.978-12.387 7.959 3.022 4.49 17.818-3.563 18.694-9.428 1.633-16.407-13.376-9.22-18.876zm25.637-34.021c2.4-.837-9.089 9.966-3.354 7.533-.594 1.282-2.425 1.449-1.931 2.968-.227 9.922 13.741 13.21 17.557 3.482.865-1.937-.471-4.005-.992-5.607 4.912.317 2.863 10.439-1.689 11.699-13.719 7.945-22.447-13.258-9.591-20.075z"/><path d="M52.913 100.618c-2.971-4.439-11.021-3.657-11.986 1.828-.397 4.06 5.909 5.446 7.452 1.749.95-1.543-2.125-1.633-2.289-.157-.16.546-.485.422-.778.039-1.765-2.4 2.778-3.812 4.024-2.193 2.573 2.794-.968 6.768-4.327 6.252-12.966-3.159-.012-19.148 8.857-8.759-1.437-.364-.459.825-.952 1.241zm18.046 20.297c-.65 3.454-3.125 3.969-5.289 1.229-1.366 4.812-1.993 3.835-5.622 1.242-1.903-1.147-.464 3.173-1.523 3.852-.738.135-.982-.837-1.047-1.374-.451-5.358 1.424-5.762 5.441-2.713.632-3.783 2.294-4.691 5.24-1.945 1.08-.951 1.111-5.848 3.064-4.062.926 1.205 2.442 5.712-.264 3.771z"/></g><path d="M24.393 111.326c-10.625.178 3.892-5.157 1.547 2.386-.269 1.74 4.752-2.696 3.196 2.678-.301 1.324 2.011.16 2.753.471 2.953.798.22 4.617 1.385 6.555-.705 2.662-3.345-1.434-2.371-2.955.283-1.045.209-1.148-.806-1.039-2.496.591-2.902-1.788-4.714-2.546-3.497-.37-.145-4.057-.991-5.55zm40.559 34.78c-2.601 1.598-1-1.719-2.177-3.077-1.959-3.513-7.78-6.825-10.626-2.579-2.684 2.287-.807 9.642-3.744 8.924-.397-14.941 12.78-17.453 16.547-3.268zm-26.164 6.546c-3.087.471-6.032 3.596-8.839 2.586.613 1.792-.049 2.668-1.553 3.646.237-1.97-1.901-6.698 1.824-5.803 6.634 4.038.606-9.574 8.568-.429z" class="D"/><path d="M48.101 149.572c-1.839 1.618-2.97 5.894-5.67 5.602-1.082-1.285 1.841-2.433 1.347-3.893 1.308-1.34 1.178-1.731 4.324-1.709zM20.683 110.99c2.522.574.013.548-.514 1.771.068 1.448-2.077.948-2.224-.206.674-.381 1.305.778 1.087-.644.351-.41 1.603-.071 1.651-.921zm17.957 41.686c.868-1.176 3.182-2.307 4.73-1.504-1.528.634-3.141 1.035-4.73 1.504zm35.772-8.555c-.925.996-2.903 1.085-4.139.983.842-1.007 3.132-1.745 4.139-.983z" class="E"/><path d="M16.303 126.201c-2.001.264 1.771-3.022 2.973-2.008-.797.922-2.158 1.138-2.982 2.021l.009-.013z" class="D"/><path d="M42.927 94.287c.801.224 1.945-.178 2.365.767-.569.353-2.395-.128-2.365-.767z" class="B"/><g class="E"><path d="M43.223 91.628c.766-.035 2.378.373 2.809.737-.981-.158-2.224.298-2.809-.737z"/><path d="M47.465 92.07l.931 1.035-2.365-.866c.39-.253 1.046.483 1.434-.168zm32.417 50.966c-.525.554-1.131.564-1.774.331.704-.679 1.143-.76 1.774-.331zM48.305 93.252l1.126.873c-.611-.004-1.401.208-1.126-.873zm28.62 50.485l-1.035.365c.209-.874.39-.943 1.035-.365z"/><path d="M75.891 144.102c-.133.413-.294.673-.591.157l.591-.157zm-31.596 6.8c.217.634.14.695-.481.477l.481-.477zm-24.561-40.757l.118.065c-.041-.019-.078-.059-.118-.065z"/></g><g class="D"><path d="M23.267 111.38a.47.47 0 0 1 .296-.027l-.296.027zm1.182-.094l.296.296-.296-.296zm50.407 33.044l-.148-.002a.24.24 0 0 1 .148.002zm-58.684-18.114l.296-.296-.296.296zm34 22.173c-.208-20.459 20.108-3.137 10.912-1.537-1.554-1.124-.693-3.84-2.968-4.311-2.012-.689-4.436-.269-5.436 1.846-.866 1.97.283 3.883-2.508 4.002z"/><path d="M52.27 147.747c-1.452-4.937 6.415-8.094 7.783-2.89.079.826.394 1.476 1.056 1.958-1.525.617-3.191 2.35-4.848 1.206 4.691-2.301 1.285-5.949-1.937-2.673 1.025-.84 3.768-.376 1.888.904-.928.724-.96.953-.242 1.779-1.007.962-3.386 1.269-3.7-.284z"/></g><path d="M98.286 157.965c.91-.59 1.669-1.547 2.691-1.892-.714 1.815-2.689 3.225-3.864 4.87-.729 1.004-2.632-.718-1.798-1.493 2.225-2.665 4.465-6.599 7.775-7.661-.954 1.634-8.029 10.27-4.803 6.176zm25.055 8.014c-2.216 2.798-5.047 9.017-8.869 8.867 1.978-3.41 5.726-6.392 8.869-8.867zm-6.209-24.833c-.913 1.431-5.386 9.611-6.799 7.692.957-2.756 4.315-6.809 6.799-7.692zm-58.263 17.736c1.604-.175 4.83-5.277 5.492-3.445-1.126.879-9.928 11.451-7.799 6.063l-.015.015.887-.893-.016.015c.666-.397 1.397-.957 1.451-1.755z" class="B"/><path d="M67.021 167.321c-1.532 2.953-12.604 11.545-5.448 3.75 1.761-1.078 3.332-3.963 5.448-3.75zm-38.346-5.037c-1.479-2.333 4.446-5.337 6.057-6.879 2.986-1.591-5.145 6.094-6.057 6.879z" class="D"/><path d="M78.716 169.97c-2.403-.852 5.322-6.959 6.635-6.796-1.666 2.483-4.319 4.841-6.635 6.796z" class="B"/><path d="M64.804 157.554c-.715 1.188-6.988 9.807-6.128 5.697 2.02-1.568 3.806-5.407 6.128-5.697zm47.947 9.904c-.607-1.183.299-1.778.914-2.635 1.77-1.658 3.162-3.996 5.241-5.2-.839 3.099-3.931 5.457-6.155 7.835z" class="D"/><path d="M117.576 157.701c-1.746 2.5-3.788 6.493-6.652 7.391.576-2.833 4.346-5.461 6.652-7.391z" class="B"/><path d="M52.111 147.797c.916 1.827-3.37 2.888-3.522 5.535-4.804 3.665-.689-1.667.764-2.987.796-1.426.849-2.398 2.758-2.548zm66.352-4.878c-1.864 2.742-3.808 6.138-6.504 7.983.843-2.887 4.39-6.291 6.504-7.983zm-37.251 9.495c-5.579 7.271-10.051 8.346-1.192.113.345-.241.781-.464 1.192-.113zm-24.728 9.131c-3.082-.442 4.979-6.562 6.394-7.391.156 1.599-3.506 2.943-4.06 4.771-.733.342-1.404.947-1.457 1.747-.588-.031-1.005.301-.876.873zm-.525-13.452c-1.651-1.361 1.124-1.505.804-2.738-.579-1.001-1.645-.098-2.454.066 3.613-3.479 6.67.816 1.65 2.672zm28.505 21.434c-2.104 2.42-4.253 5.357-7.095 6.8 1.882-2.55 4.518-5.002 7.095-6.8zm-6.617-10.347c-3.027-.24 3.725-5.126 4.843-6.061-.24 2.131-4.248 4.072-4.843 6.061z" class="D"/><path d="M101.759 158.293c-1.822 2.276-3.278 5.75-6.208 6.652 1.468-2.576 4.119-4.577 6.208-6.652z" class="B"/><path d="M68.943 170.715c-1.064.974-5.668 7.262-5.913 4.961 1.889-1.256 4.073-5.132 5.913-4.961zm-27.553-1.188c-.695-1.818 2.88-3.239 3.859-4.73 1.534.336-2.569 4.4-3.859 4.73zm53.423-22.912c-1.543-1.07 3.374-4.882 4.433-5.765-1.011 2.058-2.748 4.171-4.433 5.765zm-50.26 16.579c-1.724 1.245-2.936 4.583-5.321 4.061 1.144-1.396 3.837-4.374 5.322-4.061zm22.455 6.185c-5.309 8.28-8.657 6.651.013.016l-.013-.016z" class="D"/><path d="M34.058 159.18c-1.288 1.252-1.856 3.953-3.843 3.991.63-1.695 2.138-3.295 3.843-3.991zm-3.991 7.982c-1.12 1.323-1.792 3.189-3.248 4.139-.783-1.694 1.643-3.583 3.248-4.139z" class="B"/><path d="M38.624 164.945c-1.186-.894 1.741-3.151 2.526-3.4.794.626-1.763 2.977-2.526 3.4z" class="D"/><path d="M78.734 158.322c1.104-.825 2.117-1.79 3.365-2.394-.496 1.685-5.773 6.456-3.365 2.394zm39.581 4.997c-1.325 1.384-2.111 3.619-3.843 4.434.413-1.521 2.632-4.172 3.843-4.434zm-33.999 3.827c-3.901 5.055-5.286 4.898-.513-.176.204-.133.442-.195.513.176zm32.668-19.792c-.445 1.02-2.327 4.748-3.104 3.64.554-1.164 2.117-3.658 3.104-3.64zm-92.772 14.93c.068-.962-.555-3.284 1.139-2.503 1.673.42.092 2.42-1.139 2.503zm7.185 6.949c-.845.841-1.253 2.389-2.498 2.659-.208-.909 1.801-3.448 2.498-2.659zm17.59-13.601c-.004-1.025 1.399-2.352 2.217-2.956-.103.869-1.406 2.384-2.217 2.956zm-18.673 1.626c-.476-1.932-.413-2.025 1.526-1.499-.375.627-.747 1.255-1.526 1.499zm80.61-5.546c-.543.506-1.052.823-1.33.08.415-.703.663-.848 1.33-.08zm-43.903 17.667c.17-.122.331-.494.444-.159-.129.061-.388.079-.444.159zm56.914-.887c.044-.092.113-.444.143-.224-.026.075-.162.161-.143.224zm-6.311-10.823l.062-.084c-.002.012-.104.073-.062.084zm-15.824.592l.076-.085c-.002.012-.121.072-.076.085zm-67.697.882l.067-.074c-.003.011-.109.06-.067.074zm89.286 6.803l.061-.082c-.003.012-.102.071-.061.082z" class="B"/><path d="M132.653 92.968c2.046-2.278 4.626-4.446 7.298-5.925 2.927.426-.649 2.798-1.676 3.498-.942.238-4.751 4.135-5.622 2.426z" class="F"/><g class="C"><path d="M155.711 98.604c.105 3.066-3.332 3.323-3.841.598.344-2.724 3.118-3.767 3.841-.598zm-33.383 29.391c2.424-.154 1.853 2.963-.071 2.951-2.253-.142-2.756-3.077.071-2.951zm24.612 3.715c2.619-.168 1.466 3.162-.408 2.919-2.297.002-2.113-3.258.408-2.919zm-14.438-28.584c-.086 2.455-2.848 1.172-2.953-.59.108-1.97 3.069-1.18 2.953.59zm4.002-11.091c.69-.353.751-1.471 1.753-1.444-1.332 1.943 4.158.544 5.187.592-.846 2.072-6.776-.206-6.694 2.245-.683.558-.299-1.017-.246-1.394zm7.679 8.052c-1.197 2.476-4.038-.237-2.521-1.791 1.316-.659 1.843.792 2.521 1.791zm14.334 15.468c.123 1.451-2.407 1.994-2.36.289-.036-1.747 2.217-2.011 2.36-.289zm-29.535-21.27l-1.207-1.36c.512.14.905-.887 1.489-.131.828.445.802 1.545-.282 1.492z"/><path d="M166.948 118.987c-.533.783-1.664-.241-1.453-.984.592-.329.994.689 1.453.984zm-38.434-24.405l.296-.148-.296.148zm-82.039-6.485c.46-.084.992.023 1.311-.388-1.185-1.179.723-.697.691-1.257 1.514 1.136 2.162 3.303 3.32 4.678-.221-.435-1.229.956-1.042-.437-2.136.329-2.837-1.613-4.279-2.596z"/></g><path d="M39.312 40.156c-.731-.649-.318-1.576.553-1.598.157 1.006.212 1.037 1.11.642.437.608.035 1.527.828 2.068.321.219-.268.66-1.076.511.006-.979-.657-1.345-1.414-1.624z" class="B"/><path d="M53.98 92.125c.225.477.612.455 1.068.419-.248.568-.229 1.392-.956.797-.543-.627-1.084.145-1.596-.493-.167-.063-.47.089-.547-.216-.228-.332-.162-1.296-.056-1.449.844.31 1.111 1.46 2.087.943zm1.068-5.432c-.583.142-1.182-.031-1.774-.062.265-1.34 1.415-1.119 1.774.062zM40.952 39.207c-.914.4-.97.368-1.13-.65.815-1.1 2.102-.531 1.13.65z" class="C"/><path d="M60.222 24.516l-.262.887c-.271-.436-.281-.769.262-.887z" class="B"/><path d="M54.161 85.122l-.148-.148.148.148z" class="C"/><path d="M141.256 113.028c-.097-2.308-3.206-1.48-3.124.644.314 2.251 3.103 1.315 3.124-.644zm3.421-8.245c21.541-.222 1.468 28.325-9.496 27.163-7.979-9.196-3.643-26.416 9.496-27.163zm-30.746 14.438c.004 2.328 3.038.486 2.085-.998-1.203-1.631-2.213-.7-2.085.998zm2.897-9.992c-.168 2.823 2.977 2.623 3.014.367-.144-1.655-2.889-2.432-3.014-.367zm-10.751 8.181c-.395-5.564 2.973-11.318 8.554-12.811 19.391-2.993 9.553 20.686-1.042 25.608-4.348-1.551-7.885-7.831-7.512-12.797zm-9.068 5.624c.853-1.088 1.398-1.388.281-2.295-.825.873-1.296 1.037-.281 2.295zm5.166 2.937c-.262 2.671 2.666 2.025 2.469-.231-.2-1.484-3.054-1.757-2.469.231zm-4.656-10.542c.517.013 1.146.551 1.249-.643 1.782-1.683 4.447-3.441 6.5-5.1 5.235-5.057-2.947 7.039.421 12.732-.215 3.017 7.33 8.676 5.345 9.132-4.862 2.016-12.71 3.116-15.221-2.759-1.997-4.392-3.204-10.503 1.707-13.362zm65.348 15.198c1.786-1.003 1.57-3.226-.786-2.758-2.181.738-1.408 2.672.786 2.758zm4.206-8.846c1.44.139 2.115.511 2.121 1.863-.346 2.269 2.675 4.626.869 6.466-4.887 5.091-11.802 7.903-18.801 8.509-.935.068-1.043-.09-.671-.979 2.908-7.296 8.481-14.044 16.482-15.859zm-2.562 33.916c-1.233 1.315-2.263 2.365-4.183 2.461-2.344-.014-5.226 2.197-7.215.574-1.401-1.771-5.114-5.821-2.942-7.69 2.998-2.006 23.779.298 14.334 4.661l.006-.006zm-13.887 4.573c-3.004-.501-4.969.795-7.697.683-.61.089-1.44-.678-1.81.444-.87-.541-4.965.677-4.239-.905 1.9-2.399 10.341-12.333 11.837-6.075.305 1.772 4.406 5.112 1.909 5.853z" class="B"/><path d="M96.29 116.286c-.805 2.458-4.891.469-3.433 3.708-2.992 9.09-10.451-11.35 3.433-3.708z" class="H"/><path d="M109.978 105.817c-.14-.384-.079-.783-.055-1.183.827.38 1.026.881.055 1.183zm-2.275 2.365c-.137-.694.18-.955.856-.872l-.856.872zm56.89 47.458c.069.026.131.045.127.131-.047-.041-.079-.113-.127-.131zm-53.212-50.351c-.011.011.121.018.121.021l-.121-.021zm56.765 14.423l.124.148c-.036-.052-.165-.1-.124-.148zm-51.162-48.124c-.193.723-.427.818-.102 1.628-.529.579.003.689-.065 1.294-.347-.135-.765.45-1.089-.184-.208-.929-2.505-2.984-.745-2.945.316.08.651.788.759-.154l1.242.361z" class="B"/><path d="M105.602 71.612c-1.338-.205-1.641 1.27-2.667 1.684-.499-2.68.31-1.464 2.667-1.684z" class="C"/><g class="B"><path d="M124.878 91.774c.194.672.546.985 1.236.522.387 3.615-2.588 1.608-1.236-.522z"/><path d="M125.002 94.73c.455.407.295.586-.331.591l.331-.591z"/></g><path d="M143.592 91.166l.148-.115-.148.115z" class="C"/><path d="M124.712 90c.056.098.161.17.073.296-.057-.102-.176-.168-.073-.296z" class="B"/><path d="M153.933 143.121c2.096-1.135 4.514-.22 2.11 1.665-1.14.45-3.892-2.02-2.11-1.665zm10.354 1.169c-.977.969-1.591 1.292-2.059-.035-.147-1.761 1.279-1.406 2.059.035z" class="C"/><path d="M118.518 16.355c-.962-1.552-1.905 1.516-2.594-.166-.165-.242-.153-.025-.245.101-1.461 1.33-1.663.518-2.686-.709.141.013.948-.336 1.294-.655.729-.024.729-.024.458-.489-.434-1.353 1.751.213 3.443-.973.618-.745 1.869-1.833 2.062-.282-1.065.497-.675 1.414.307 1.525-.165.713.705 1.764-.662 2.2.485 1.59-.905-.137-1.377-.553z" class="H"/><path d="M114.002 22.487c.185 1.341-.667.905-.678-.121.154-.654-.767-.484-1.075-1.115-1.972-1.411-.872 2.291-1.239 3.561-.854-.059-.837-.613-.301-1.171.005-.575.211-1.263-.024-1.702-.577-1.078.244-1.588.742-2.082 1.022-.491 2.2 1.711 2.575 2.63zm2.733-10.388c.322.61.762.53 1.243.215 1.203 1.238-1.136 1.532-1.997 1.707-2.348-.211-.226-1.127.754-1.922zm-4.626 13.904c1.209.56.798.616-.286.858-.973.061.37 1.642-.826.817-1.521-.198-1.003-2.39-.043-1.097.184-.539.593-.982 1.155-.578z" class="C"/><path d="M114.054 22.594c-.323-.906-1.197-1.749-.505-2.661 1.336.423 2.019 1.194.505 2.661zm-1.061 5.753c.672-.14 2.053-.42 1.912.713-.387 1.089-1.75.101-1.912-.713zm-2.52-2.205c-1.486-2.622 3.369-.628 1.226-.233-.623-.588-.894-.536-1.226.233zm2.181-7.687c-.078-.447-.701-1.758.363-1.341 2.3-1.028.633 1.027-.363 1.341zm-1.878 5.174l-.443.591.443-.591z" class="B"/><path d="M112.937 15.203l.352.296c-.307-.01-.597.023-.352-.296z" class="C"/><path d="M112.846 20.673l-.296-.148.296.148z" class="B"/><path d="M112.97 15.641c-.412.004-.318-.229.023-.093l-.023.093zm1.354-1.768l-.296.148.296-.148zm-18.003 102.38c-8.111-6.036-11.571 4.893-4.831 5.967.845 1.611-.313.658-1.084 1.631-3.96-1.175-5.131-6.731-2.9-9.739 1.736-2.388 12.324-.971 8.815 2.141z" class="C"/><g class="G"><path d="M47.953 175.685c-.04.312-.14.193-.296.065.093-.178.166-.224.296-.065zm.443-.651l-.296.11c.067-.333.102-.405.296-.11zm48.781 1.441c.395-1.141 1.106-1.852 2.069-2.07-.395.986-.953 1.808-2.069 2.07zm-.592.886l.296-.591-.296.591z"/><path d="M96.881 176.77l.296-.295-.296.295z"/></g><path d="M64.68 95.174l.101.443-.101-.443z" class="F"/><path d="M91.489 133.197c2.078.5.95 4.088-1.111 3.35-.439-.175-.736-.523-.995.164-2.528-.44-.097-3.927 2.105-3.514zm46.174 9.304c.271 1.797-3.007 2.495-3.087.71-.076-2.235 2.883-2.927 3.087-.71zm-3.105 7.995c4.887.164-.944 4.857-1.461.88.045-1.124.873-.915 1.461-.88z" class="C"/><path d="M127.184 153.197c.357-.759 1.304-2.513 1.774-.888-.25.385-1.383 1.201-1.774.888zM98.803 139.19l.443-.114c-.171.232-.263.47-.443.114zm28.529 14.189l-.296.036c.098-.177.158-.203.296-.036z" class="G"/><path d="M53.866 92.063c-2.822.199-3.284-4.379-5.389-5.727-1.836-3.395-6.549-5.151-7.324-8.9 5.223 1.522 8.825 7.118 11.942 11.421.4.741.623 2.17.77 3.207z" class="F"/><path d="M53.915 91.626c-.569-2.422-.431-2.931.394-.38l-.394.38zm-.668-2.71c-.104.068-.101.036-.095-.069.087-.028.109-.03.095.069z" class="C"/><g class="G"><path d="M97.472 159.18c.268-.391.698-.802.887-1.183-.27.393-.695.794-.887 1.183zm-.147 0c-.135.101-.35.636-.444.369.12-.13.403-.235.444-.369zm-39.912 1.478c.128-.895.72-1.403 1.478-1.774-.129.894-.785 1.349-1.478 1.774z"/><path d="M56.534 161.545c-.067-.659.288-.892.879-.887l-.879.887zm22.165-3.244c-.002.585-.277.897-.887.878.024-.562.226-.948.887-.878z"/></g><path d="M133.836 91.542c-.501.934-1.416-1.23-.863-1.541.758.133.659.979.863 1.541z" class="C"/><path d="M45.351 50.768c-3.314.463-1.594-1.925.905-1.151.693.82.83.774 1.252-.426 3.13.515 28.707-3.23 25.609.507-9.212.87-18.526.535-27.767 1.07zm.971-8.991c1.602.315 22.641-1.873 16.011 1.5-1.865-.069-28.305.97-16.011-1.5z" class="F"/><path d="M46.279 49.605c-5.159-.69-.714 2.389-3.971 1.011-.566-1.225.404-1.814-.727-2.92-.54-.86-.801-2.473.651-1.935.37 1.512 1.411-.083 2.278.806.69 1.511-1.288.189-1.148 1.829-.037.095.073.249.115.375.626-.298 1.341.797 1.978-.191.275-.427.626-.336.529.325-.077.213.509.464.295.7zm-7.343-7.773c-.583.079-1.173.125-.992.97.119.555-.55 1.075-.112 1.68-1.804 2.226-1.401-4.962 1.104-2.65z" class="B"/><path d="M38.914 41.889c-2.117-.96-1.409-.757.307-1.704 1.879.606 1.787 2.113-.307 1.704z" class="F"/><path d="M46.427 41.767l-2.17.192c.951-.134.861-.932.947-1.618 2.054-.922 2.996-.423 1.223 1.426z" class="C"/><path d="M45.44 50.68l4.73-.148-4.73.148z" class="B"/><path d="M46.327 49.652c.252-.345.817-.275 1.182-.45-.4 1.266-.529 1.315-1.182.45z" class="C"/><path d="M45.976 40.108c-.931.696-1.636-.416-.651-.783.362-.118.876.154.651.783zm-2.014 10.72l.591.148-.591-.148z" class="B"/><path d="M35.581 87.339c1.301.694 7.577.99 5.871 2.661-2.083-.415-11.258-1.09-5.871-2.661z" class="F"/><path d="M141.227 112.992c-.022 1.994-2.791 2.947-3.103.655-.08-2.162 3.006-3.005 3.103-.655zm-24.384-3.837c.123-2.107 2.81-1.315 2.95.375-.037 2.301-3.115 2.505-2.95-.375zm-2.804 10.041c-.125-1.7.858-2.632 2.027-.999.925 1.485-2.023 3.328-2.027.999zm-11.907 6.785c-.575-1.95 2.23-1.684 2.426-.227.194 2.213-2.683 2.847-2.426.227zm-5.12-3.017c-1.009-1.296-.541-1.466.279-2.365 1.109.935.569 1.244-.279 2.365zm65.802 7.686c-2.184-.086-2.953-2.011-.782-2.745 2.344-.465 2.56 1.749.782 2.745z" class="C"/><path d="M123.636 81.635c-1.417 2.863-3.898-1.133-5.251-2.194-1.611-2.085-3.039 2.459-4.467 3.274-2.003 2.332-3.679-2.224-5.338-3.176-4.62 2.558-3.461 7.522-8.922 1.101-1.907-2.432-2.568 2.692-4.672 2.53-.474-.971.11-1.615.691-2.349 4.713-8.548 4.541 1.363 8.639-.045 1.496-1.08 3.34-5.322 5.31-3.263 7.195 9.822 3.31-10.246 14.01 4.121z" class="F"/><path d="M123.69 76.149c-1.089-.12-.839-.776-.518-1.411.353.053.761.338.749-.419-.006-.424.219-1.03.876-.839 1.589.6-.531 2.231.146 3.36.614-.224 1.027-.367.936-1.099 1.294-.913 1.496 2.717-2.008 1.405-.62-.236-.217-.912.312-1.063.26-.941-.494-.629-.493.066z" class="C"/><path d="M121.04 74.627c-3.387-.445-.393-3.71 1.35-1.737.392.868-1.147.877-1.35 1.737z" class="B"/><path d="M106.194 75.173c-.617.61-1.882 2.482-2.512.91 1.077.004.98-.163.08-.615-3.366-.052 1.905-2.325 2.432-.295zm21.523-2.153c-3.764.37.29-1.755 1.389-.512-.772 1.131-1.264.393-1.389.512z" class="C"/><path d="M106.104 75.052l-.649-.842c.831-1.127 2.144 1.078.649.842z" class="B"/><path d="M113.732 72.685c-.698.451-.825-.115-1.33-.419.617-.675.73-.069 1.33.419z" class="C"/><path d="M128.219 72.287l-1.922.27c.58-.909.911-.956 1.922-.27z" class="F"/><path d="M102.944 75.383c.649-.096 1.119.218 1.624.522-.593.003-1.679.289-1.624-.522z" class="B"/><path d="M126.089 73.02l-.035.109c.008-.035.062-.08.035-.109zm-3.044 1.748l-.148-.134c.04.047.154.077.148.134zm-19.956 1.041l.148.148-.148-.148z" class="C"/><path d="M125.144 11.45c.185.754 1.415 1.81.556 2.398-2.787 1.395-2.311 2.041-3.795-.647.248-.154.969-.119.667-.494-1.305 1.218-.532-.623-2.453.466-1.218-1.993 1.322-.467 1.992-1.813.225.122.555.189.657.377.629 1.581 1.114-.424 2.376-.287z" class="B"/><path d="M120.16 13.196c2.477-1.267.66 1.172 3.033 2.052-.55.448-1.019.243-1.429-.202-.676-.774-3.543-.255-1.604-1.851z" class="C"/><path d="M115.95 23.333c-.318-.544.273-1.224-.364-1.789-.322-.285.402-.953.969-.885.125-.69.743-.371 1.316-.25-1.152.801-.653 2.333-1.921 2.924zm3.718-3.21c.955 1.081.095 1.579-.701 2.323-.814-.655-.686-2.68.701-2.323z" class="B"/><path d="M118.905 20.202c-.376 1.032-1.244.045-2.08.051-.506-.829.553-.399.635-.753.535-.264 1.487-.294 1.445.702zm-.485-3.816c1.776.911 1.084 3.988-.12 1.265-.284-.459-.502-.899.12-1.265z" class="F"/><path d="M118.891 18.603c.75.47 1.574 1.83.023 1.6-.067-.529-.197-.997-.895-.896l.872-.704z" class="C"/><path d="M113.988 23.519c-.057-.973.978-.265.745.32-.788.951-1.687.948-.745-.32zm-2.264 4.219c-.771-.924.796-.922 1.417-1.153-.057.878-.495 1.303-1.417 1.153z" class="B"/><path d="M114.619 23.958c.513-.991 1.812-.306 1.398.854-.225-.688-.725-.82-1.398-.854z" class="C"/><path d="M128.514 15.804c-.36.159-.807.82-1.181.492-.038-.758.827-1.083 1.181-.492zm-15.684 6.053c.346.002.732-.066.568.503.171 1.265-1.103.562-.568-.503z" class="B"/><g class="C"><path d="M125.854 13.701c.451-.58.3-1.579 1.33-1.441-.271.644-.181 1.633-1.33 1.441z"/><path d="M125.41 13.839l.296-.079-.296.079z"/></g><path d="M115.802 18.233c.841-.622 1.129-1.374 1.774-.178-.664.179-1.083.692-1.774.178zm-.148.551c-.624.944-1.397.057-.847-.624l.847.624z" class="B"/><path d="M117.548 19.411c-.008.125-.029.079-.093.014.032-.105.034-.107.093-.014zm-3.224-4.503l.433-.443c.257.422.257.422-.433.443z" class="C"/><path d="M118.537 12.55l.813-.008c-.374.08-1.126.618-.813.008z" class="B"/><path d="M118.463 12.563c-.065.632-.245.012-.444-.239.396-.51.376-.032.444.239z" class="H"/><g class="F"><path d="M122.461 14.76c-.278-.364-1.442-1.335-.583-1.626.553.412.947.881.583 1.626z"/><path d="M122.01 13.134c.252-.115.631-.742.739-.269l-.739.269z"/></g></svg>